<mxfile host="Electron" agent="Mozilla/5.0 (Windows NT 10.0; Win64; x64) AppleWebKit/537.36 (KHTML, like Gecko) draw.io/28.2.7 Chrome/138.0.7204.251 Electron/37.7.1 Safari/537.36" version="28.2.7">
  <diagram name="Page-1" id="xJjv34P5niUashE2fhvh">
    <mxGraphModel dx="1426" dy="841" grid="1" gridSize="10" guides="1" tooltips="1" connect="1" arrows="1" fold="1" page="1" pageScale="1" pageWidth="850" pageHeight="1100" math="0" shadow="0">
      <root>
        <mxCell id="0" />
        <mxCell id="1" parent="0" />
        <mxCell id="1r12DcMATcjI9YzGo3A_-6" value="&lt;p style=&quot;margin:0px;margin-top:4px;text-align:center;&quot;&gt;&lt;b&gt;Inquiry&lt;/b&gt;&lt;/p&gt;&lt;hr size=&quot;1&quot; style=&quot;border-style:solid;&quot;&gt;&lt;p style=&quot;margin:0px;margin-left:4px;&quot;&gt;ID: int&lt;/p&gt;&lt;p style=&quot;margin:0px;margin-left:4px;&quot;&gt;date of inquiry: date&lt;/p&gt;&lt;p style=&quot;margin:0px;margin-left:4px;&quot;&gt;requestID: int&lt;/p&gt;&lt;p style=&quot;margin:0px;margin-left:4px;&quot;&gt;donerID: int&lt;/p&gt;&lt;hr size=&quot;1&quot; style=&quot;border-style:solid;&quot;&gt;&lt;p style=&quot;margin:0px;margin-left:4px;&quot;&gt;&lt;br&gt;&lt;/p&gt;" style="verticalAlign=top;align=left;overflow=fill;html=1;whiteSpace=wrap;" vertex="1" parent="1">
          <mxGeometry x="600" y="410" width="160" height="120" as="geometry" />
        </mxCell>
        <mxCell id="1r12DcMATcjI9YzGo3A_-11" value="" style="endArrow=diamondThin;endFill=1;endSize=24;html=1;rounded=0;exitX=0.5;exitY=0;exitDx=0;exitDy=0;entryX=0.5;entryY=1;entryDx=0;entryDy=0;" edge="1" parent="1" source="1r12DcMATcjI9YzGo3A_-5" target="1r12DcMATcjI9YzGo3A_-6">
          <mxGeometry width="160" relative="1" as="geometry">
            <mxPoint x="350" y="430" as="sourcePoint" />
            <mxPoint x="510" y="430" as="targetPoint" />
          </mxGeometry>
        </mxCell>
        <mxCell id="1r12DcMATcjI9YzGo3A_-15" value="" style="endArrow=none;html=1;rounded=0;entryX=1.013;entryY=0.378;entryDx=0;entryDy=0;entryPerimeter=0;" edge="1" parent="1" target="1r12DcMATcjI9YzGo3A_-12">
          <mxGeometry width="50" height="50" relative="1" as="geometry">
            <mxPoint x="740" y="407" as="sourcePoint" />
            <mxPoint x="450" y="360" as="targetPoint" />
            <Array as="points">
              <mxPoint x="740" y="190" />
            </Array>
          </mxGeometry>
        </mxCell>
        <mxCell id="1r12DcMATcjI9YzGo3A_-16" value="Project Hope - Class diagram" style="swimlane;whiteSpace=wrap;html=1;" vertex="1" parent="1">
          <mxGeometry x="40" y="40" width="780" height="1000" as="geometry" />
        </mxCell>
        <mxCell id="1r12DcMATcjI9YzGo3A_-3" value="&lt;p style=&quot;margin:0px;margin-top:4px;text-align:center;&quot;&gt;&lt;b&gt;Verified recepient&lt;/b&gt;&lt;/p&gt;&lt;hr size=&quot;1&quot; style=&quot;border-style:solid;&quot;&gt;&lt;p style=&quot;margin:0px;margin-left:4px;&quot;&gt;province: string&lt;/p&gt;&lt;p style=&quot;margin:0px;margin-left:4px;&quot;&gt;district: string&lt;/p&gt;&lt;p style=&quot;margin:0px;margin-left:4px;&quot;&gt;divisional secretarial: string&lt;/p&gt;&lt;p style=&quot;margin:0px;margin-left:4px;&quot;&gt;grama niladhari division: string&lt;/p&gt;&lt;p style=&quot;margin:0px;margin-left:4px;&quot;&gt;employeement status: bool&lt;/p&gt;&lt;p style=&quot;margin:0px;margin-left:4px;&quot;&gt;employeement category: enum(government, non-government, unemployed)&lt;/p&gt;&lt;p style=&quot;margin:0px;margin-left:4px;&quot;&gt;occupasion: string&lt;/p&gt;&lt;p style=&quot;margin:0px;margin-left:4px;&quot;&gt;annual salary: int&lt;/p&gt;&lt;p style=&quot;margin:0px;margin-left:4px;&quot;&gt;no. of family members: int&lt;/p&gt;&lt;p style=&quot;margin:0px;margin-left:4px;&quot;&gt;health condition: string&lt;/p&gt;&lt;p style=&quot;margin:0px;margin-left:4px;&quot;&gt;asset status: string&lt;/p&gt;&lt;hr size=&quot;1&quot; style=&quot;border-style:solid;&quot;&gt;&lt;p style=&quot;margin:0px;margin-left:4px;&quot;&gt;&lt;br&gt;&lt;/p&gt;" style="verticalAlign=top;align=left;overflow=fill;html=1;whiteSpace=wrap;" vertex="1" parent="1r12DcMATcjI9YzGo3A_-16">
          <mxGeometry x="290" y="670" width="190" height="270" as="geometry" />
        </mxCell>
        <mxCell id="1r12DcMATcjI9YzGo3A_-5" value="&lt;p style=&quot;margin:0px;margin-top:4px;text-align:center;&quot;&gt;&lt;b&gt;Doner&lt;/b&gt;&lt;/p&gt;&lt;hr size=&quot;1&quot; style=&quot;border-style:solid;&quot;&gt;&lt;p style=&quot;margin:0px;margin-left:4px;&quot;&gt;ID: int&lt;/p&gt;&lt;p style=&quot;margin:0px;margin-left:4px;&quot;&gt;email: string&lt;/p&gt;&lt;p style=&quot;margin:0px;margin-left:4px;&quot;&gt;password: string&lt;/p&gt;&lt;p style=&quot;margin:0px;margin-left:4px;&quot;&gt;name: string&lt;/p&gt;&lt;p style=&quot;margin:0px;margin-left:4px;&quot;&gt;NIC: int&lt;/p&gt;&lt;p style=&quot;margin:0px;margin-left:4px;&quot;&gt;organization: string&lt;/p&gt;&lt;p style=&quot;margin:0px;margin-left:4px;&quot;&gt;occupation: string&lt;/p&gt;&lt;hr size=&quot;1&quot; style=&quot;border-style:solid;&quot;&gt;&lt;p style=&quot;margin:0px;margin-left:4px;&quot;&gt;signup()&lt;/p&gt;&lt;p style=&quot;margin:0px;margin-left:4px;&quot;&gt;signin()&lt;/p&gt;&lt;p style=&quot;margin:0px;margin-left:4px;&quot;&gt;view_profile()&lt;/p&gt;&lt;p style=&quot;margin:0px;margin-left:4px;&quot;&gt;update_profile()&lt;/p&gt;&lt;p style=&quot;margin:0px;margin-left:4px;&quot;&gt;view_posts()&lt;/p&gt;&lt;p style=&quot;margin:0px;margin-left:4px;&quot;&gt;view_statistics()&lt;/p&gt;&lt;p style=&quot;margin:0px;margin-left:4px;&quot;&gt;request_contact_details()&lt;/p&gt;" style="verticalAlign=top;align=left;overflow=fill;html=1;whiteSpace=wrap;" vertex="1" parent="1r12DcMATcjI9YzGo3A_-16">
          <mxGeometry x="555" y="670" width="170" height="260" as="geometry" />
        </mxCell>
        <mxCell id="1r12DcMATcjI9YzGo3A_-2" value="&lt;p style=&quot;margin:0px;margin-top:4px;text-align:center;&quot;&gt;&lt;b&gt;Recepient&lt;/b&gt;&lt;/p&gt;&lt;hr size=&quot;1&quot; style=&quot;border-style:solid;&quot;&gt;&lt;p style=&quot;margin:0px;margin-left:4px;&quot;&gt;ID: int&lt;/p&gt;&lt;p style=&quot;margin:0px;margin-left:4px;&quot;&gt;email: string&lt;/p&gt;&lt;p style=&quot;margin:0px;margin-left:4px;&quot;&gt;&lt;span style=&quot;background-color: transparent; color: light-dark(rgb(0, 0, 0), rgb(255, 255, 255));&quot;&gt;password: string&lt;/span&gt;&lt;/p&gt;&lt;p style=&quot;margin:0px;margin-left:4px;&quot;&gt;&lt;span style=&quot;background-color: transparent; color: light-dark(rgb(0, 0, 0), rgb(255, 255, 255));&quot;&gt;name: string&lt;/span&gt;&lt;/p&gt;&lt;p style=&quot;margin:0px;margin-left:4px;&quot;&gt;birthday: date&lt;/p&gt;&lt;p style=&quot;margin:0px;margin-left:4px;&quot;&gt;NIC: int&lt;/p&gt;&lt;p style=&quot;margin:0px;margin-left:4px;&quot;&gt;telephone: int&lt;/p&gt;&lt;p style=&quot;margin:0px;margin-left:4px;&quot;&gt;address: string&lt;/p&gt;&lt;p style=&quot;margin:0px;margin-left:4px;&quot;&gt;postal code: int&lt;/p&gt;&lt;hr size=&quot;1&quot; style=&quot;border-style:solid;&quot;&gt;&lt;p style=&quot;margin:0px;margin-left:4px;&quot;&gt;signup()&lt;/p&gt;&lt;p style=&quot;margin:0px;margin-left:4px;&quot;&gt;signin()&lt;/p&gt;&lt;p style=&quot;margin:0px;margin-left:4px;&quot;&gt;post_request()&lt;/p&gt;&lt;p style=&quot;margin:0px;margin-left:4px;&quot;&gt;edit_request()&lt;/p&gt;&lt;p style=&quot;margin:0px;margin-left:4px;&quot;&gt;delete_request()&lt;/p&gt;&lt;p style=&quot;margin:0px;margin-left:4px;&quot;&gt;view_profile()&lt;/p&gt;&lt;p style=&quot;margin:0px;margin-left:4px;&quot;&gt;edit_profile()&lt;/p&gt;&lt;p style=&quot;margin:0px;margin-left:4px;&quot;&gt;appeal_verification()&lt;/p&gt;" style="verticalAlign=top;align=left;overflow=fill;html=1;whiteSpace=wrap;" vertex="1" parent="1r12DcMATcjI9YzGo3A_-16">
          <mxGeometry x="50" y="670" width="160" height="300" as="geometry" />
        </mxCell>
        <mxCell id="1r12DcMATcjI9YzGo3A_-9" value="" style="endArrow=open;endFill=1;endSize=12;html=1;rounded=0;exitX=-0.002;exitY=0.061;exitDx=0;exitDy=0;exitPerimeter=0;entryX=1.003;entryY=0.05;entryDx=0;entryDy=0;entryPerimeter=0;" edge="1" parent="1r12DcMATcjI9YzGo3A_-16" source="1r12DcMATcjI9YzGo3A_-3" target="1r12DcMATcjI9YzGo3A_-2">
          <mxGeometry width="160" relative="1" as="geometry">
            <mxPoint x="310" y="420" as="sourcePoint" />
            <mxPoint x="470" y="420" as="targetPoint" />
          </mxGeometry>
        </mxCell>
        <mxCell id="1r12DcMATcjI9YzGo3A_-4" value="&lt;p style=&quot;margin:0px;margin-top:4px;text-align:center;&quot;&gt;&lt;b&gt;Request&lt;/b&gt;&lt;/p&gt;&lt;hr size=&quot;1&quot; style=&quot;border-style:solid;&quot;&gt;&lt;p style=&quot;margin:0px;margin-left:4px;&quot;&gt;ID: int&lt;/p&gt;&lt;p style=&quot;margin:0px;margin-left:4px;&quot;&gt;verification status: enum(verified, unverified, fraud)&lt;/p&gt;&lt;p style=&quot;margin:0px;margin-left:4px;&quot;&gt;title: string&lt;/p&gt;&lt;p style=&quot;margin:0px;margin-left:4px;&quot;&gt;message: string&lt;/p&gt;&lt;p style=&quot;margin:0px;margin-left:4px;&quot;&gt;category: enum(financial, educational, health, nutritional, health)&lt;/p&gt;&lt;hr size=&quot;1&quot; style=&quot;border-style:solid;&quot;&gt;&lt;p style=&quot;margin:0px;margin-left:4px;&quot;&gt;&lt;br&gt;&lt;/p&gt;" style="verticalAlign=top;align=left;overflow=fill;html=1;whiteSpace=wrap;" vertex="1" parent="1r12DcMATcjI9YzGo3A_-16">
          <mxGeometry x="270" y="350" width="190" height="190" as="geometry" />
        </mxCell>
        <mxCell id="1r12DcMATcjI9YzGo3A_-1" value="&lt;p style=&quot;margin:0px;margin-top:4px;text-align:center;&quot;&gt;&lt;b&gt;Admin&lt;/b&gt;&lt;/p&gt;&lt;hr size=&quot;1&quot; style=&quot;border-style:solid;&quot;&gt;&lt;p style=&quot;margin:0px;margin-left:4px;&quot;&gt;ID: int&lt;/p&gt;&lt;p style=&quot;margin: 0px 0px 0px 4px;&quot;&gt;email: string&lt;/p&gt;&lt;p style=&quot;margin: 0px 0px 0px 4px;&quot;&gt;password: string&lt;/p&gt;&lt;hr size=&quot;1&quot; style=&quot;border-style:solid;&quot;&gt;&lt;p style=&quot;margin:0px;margin-left:4px;&quot;&gt;view_verification_requests()&lt;/p&gt;&lt;p style=&quot;margin:0px;margin-left:4px;&quot;&gt;verify_requests()&lt;/p&gt;&lt;p style=&quot;margin:0px;margin-left:4px;&quot;&gt;view_recent_recepients()&lt;/p&gt;&lt;p style=&quot;margin:0px;margin-left:4px;&quot;&gt;view_recent_doners()&lt;/p&gt;&lt;p style=&quot;margin:0px;margin-left:4px;&quot;&gt;view_recent_request_posts()&lt;/p&gt;&lt;p style=&quot;margin:0px;margin-left:4px;&quot;&gt;searh_doners()&lt;/p&gt;&lt;p style=&quot;margin:0px;margin-left:4px;&quot;&gt;search_recepients()&lt;/p&gt;&lt;p style=&quot;margin:0px;margin-left:4px;&quot;&gt;update_statistics()&lt;/p&gt;&lt;p style=&quot;margin:0px;margin-left:4px;&quot;&gt;&lt;br&gt;&lt;/p&gt;" style="verticalAlign=top;align=left;overflow=fill;html=1;whiteSpace=wrap;" vertex="1" parent="1r12DcMATcjI9YzGo3A_-16">
          <mxGeometry x="50" y="100" width="170" height="210" as="geometry" />
        </mxCell>
        <mxCell id="1r12DcMATcjI9YzGo3A_-8" value="" style="endArrow=none;html=1;rounded=0;entryX=0.25;entryY=1;entryDx=0;entryDy=0;exitX=0.25;exitY=0;exitDx=0;exitDy=0;" edge="1" parent="1r12DcMATcjI9YzGo3A_-16" source="1r12DcMATcjI9YzGo3A_-2" target="1r12DcMATcjI9YzGo3A_-1">
          <mxGeometry width="50" height="50" relative="1" as="geometry">
            <mxPoint x="90" y="660" as="sourcePoint" />
            <mxPoint x="410" y="400" as="targetPoint" />
          </mxGeometry>
        </mxCell>
        <mxCell id="1r12DcMATcjI9YzGo3A_-12" value="&lt;p style=&quot;margin:0px;margin-top:4px;text-align:center;&quot;&gt;&lt;b&gt;Interface&lt;/b&gt;&lt;/p&gt;&lt;hr size=&quot;1&quot; style=&quot;border-style:solid;&quot;&gt;&lt;p style=&quot;margin:0px;margin-left:4px;&quot;&gt;&lt;br&gt;&lt;/p&gt;&lt;hr size=&quot;1&quot; style=&quot;border-style:solid;&quot;&gt;&lt;p style=&quot;margin:0px;margin-left:4px;&quot;&gt;&lt;br&gt;&lt;/p&gt;" style="verticalAlign=top;align=left;overflow=fill;html=1;whiteSpace=wrap;" vertex="1" parent="1r12DcMATcjI9YzGo3A_-16">
          <mxGeometry x="490" y="120" width="160" height="80" as="geometry" />
        </mxCell>
        <mxCell id="1r12DcMATcjI9YzGo3A_-13" value="" style="endArrow=none;html=1;rounded=0;entryX=0.993;entryY=0.147;entryDx=0;entryDy=0;exitX=0;exitY=0.136;exitDx=0;exitDy=0;entryPerimeter=0;exitPerimeter=0;" edge="1" parent="1r12DcMATcjI9YzGo3A_-16" source="1r12DcMATcjI9YzGo3A_-12" target="1r12DcMATcjI9YzGo3A_-1">
          <mxGeometry width="50" height="50" relative="1" as="geometry">
            <mxPoint x="40" y="760" as="sourcePoint" />
            <mxPoint x="40" y="210" as="targetPoint" />
          </mxGeometry>
        </mxCell>
        <mxCell id="1r12DcMATcjI9YzGo3A_-14" value="" style="endArrow=none;html=1;rounded=0;entryX=-0.003;entryY=0.379;entryDx=0;entryDy=0;exitX=0.5;exitY=0;exitDx=0;exitDy=0;entryPerimeter=0;" edge="1" parent="1r12DcMATcjI9YzGo3A_-16" source="1r12DcMATcjI9YzGo3A_-4" target="1r12DcMATcjI9YzGo3A_-12">
          <mxGeometry width="50" height="50" relative="1" as="geometry">
            <mxPoint x="310" y="720" as="sourcePoint" />
            <mxPoint x="310" y="170" as="targetPoint" />
            <Array as="points">
              <mxPoint x="365" y="150" />
            </Array>
          </mxGeometry>
        </mxCell>
        <mxCell id="1r12DcMATcjI9YzGo3A_-10" value="" style="endArrow=diamondThin;endFill=1;endSize=24;html=1;rounded=0;entryX=0;entryY=0.5;entryDx=0;entryDy=0;exitX=0.682;exitY=-0.002;exitDx=0;exitDy=0;exitPerimeter=0;" edge="1" parent="1r12DcMATcjI9YzGo3A_-16" source="1r12DcMATcjI9YzGo3A_-2" target="1r12DcMATcjI9YzGo3A_-4">
          <mxGeometry width="160" relative="1" as="geometry">
            <mxPoint x="160" y="660" as="sourcePoint" />
            <mxPoint x="470" y="420" as="targetPoint" />
            <Array as="points">
              <mxPoint x="160" y="445" />
            </Array>
          </mxGeometry>
        </mxCell>
        <mxCell id="1r12DcMATcjI9YzGo3A_-17" value="1" style="text;html=1;whiteSpace=wrap;strokeColor=none;fillColor=none;align=center;verticalAlign=middle;rounded=0;" vertex="1" parent="1r12DcMATcjI9YzGo3A_-16">
          <mxGeometry x="150" y="640" width="60" height="30" as="geometry" />
        </mxCell>
        <mxCell id="1r12DcMATcjI9YzGo3A_-18" value="1" style="text;html=1;whiteSpace=wrap;strokeColor=none;fillColor=none;align=center;verticalAlign=middle;rounded=0;" vertex="1" parent="1r12DcMATcjI9YzGo3A_-16">
          <mxGeometry x="50" y="320" width="60" height="30" as="geometry" />
        </mxCell>
        <mxCell id="1r12DcMATcjI9YzGo3A_-19" value="1" style="text;html=1;whiteSpace=wrap;strokeColor=none;fillColor=none;align=center;verticalAlign=middle;rounded=0;" vertex="1" parent="1r12DcMATcjI9YzGo3A_-16">
          <mxGeometry x="210" y="100" width="60" height="30" as="geometry" />
        </mxCell>
        <mxCell id="1r12DcMATcjI9YzGo3A_-22" value="1" style="text;html=1;whiteSpace=wrap;strokeColor=none;fillColor=none;align=center;verticalAlign=middle;rounded=0;" vertex="1" parent="1r12DcMATcjI9YzGo3A_-16">
          <mxGeometry x="440" y="100" width="60" height="30" as="geometry" />
        </mxCell>
        <mxCell id="1r12DcMATcjI9YzGo3A_-21" value="1" style="text;html=1;whiteSpace=wrap;strokeColor=none;fillColor=none;align=center;verticalAlign=middle;rounded=0;" vertex="1" parent="1r12DcMATcjI9YzGo3A_-16">
          <mxGeometry x="430" y="145" width="60" height="30" as="geometry" />
        </mxCell>
        <mxCell id="1r12DcMATcjI9YzGo3A_-20" value="1" style="text;html=1;whiteSpace=wrap;strokeColor=none;fillColor=none;align=center;verticalAlign=middle;rounded=0;" vertex="1" parent="1r12DcMATcjI9YzGo3A_-16">
          <mxGeometry x="640" y="115" width="60" height="30" as="geometry" />
        </mxCell>
        <mxCell id="1r12DcMATcjI9YzGo3A_-23" value="1" style="text;html=1;whiteSpace=wrap;strokeColor=none;fillColor=none;align=center;verticalAlign=middle;rounded=0;" vertex="1" parent="1r12DcMATcjI9YzGo3A_-16">
          <mxGeometry x="630" y="640" width="60" height="30" as="geometry" />
        </mxCell>
        <mxCell id="1r12DcMATcjI9YzGo3A_-24" value="1..3" style="text;html=1;whiteSpace=wrap;strokeColor=none;fillColor=none;align=center;verticalAlign=middle;rounded=0;" vertex="1" parent="1r12DcMATcjI9YzGo3A_-16">
          <mxGeometry x="200" y="410" width="60" height="30" as="geometry" />
        </mxCell>
        <mxCell id="1r12DcMATcjI9YzGo3A_-26" value="0..*" style="text;html=1;whiteSpace=wrap;strokeColor=none;fillColor=none;align=center;verticalAlign=middle;rounded=0;" vertex="1" parent="1r12DcMATcjI9YzGo3A_-16">
          <mxGeometry x="580" y="500" width="60" height="30" as="geometry" />
        </mxCell>
        <mxCell id="1r12DcMATcjI9YzGo3A_-25" value="0..*" style="text;html=1;whiteSpace=wrap;strokeColor=none;fillColor=none;align=center;verticalAlign=middle;rounded=0;" vertex="1" parent="1r12DcMATcjI9YzGo3A_-16">
          <mxGeometry x="640" y="340" width="60" height="30" as="geometry" />
        </mxCell>
        <mxCell id="1r12DcMATcjI9YzGo3A_-27" value="0..*" style="text;html=1;whiteSpace=wrap;strokeColor=none;fillColor=none;align=center;verticalAlign=middle;rounded=0;" vertex="1" parent="1r12DcMATcjI9YzGo3A_-16">
          <mxGeometry x="40" y="640" width="60" height="30" as="geometry" />
        </mxCell>
        <mxCell id="1r12DcMATcjI9YzGo3A_-28" value="0..*" style="text;html=1;whiteSpace=wrap;strokeColor=none;fillColor=none;align=center;verticalAlign=middle;rounded=0;" vertex="1" parent="1r12DcMATcjI9YzGo3A_-16">
          <mxGeometry x="320" y="320" width="60" height="30" as="geometry" />
        </mxCell>
      </root>
    </mxGraphModel>
  </diagram>
</mxfile>
